<svg width="720" height="720" viewBox="0 0 720 720" fill="none" xmlns="http://www.w3.org/2000/svg">

    <style>

        @keyframes float {
            0%, 100% { transform: translateY(-1%); }
            50% { transform: translateY(1%); }
        }

        @keyframes float-reverse {
            0%, 100% { transform: translateY(1%); }
            50% { transform: translateY(-1%); }
        }

        #wrench {
            animation: float 3s infinite;
        }

        #screw {
            animation: float-reverse 2.75s infinite;
        }

        @keyframes left {
            0%, 30% { transform: translate(0%, 0%); }
            5% { transform: translate(3.5%, 0%); }
            15% { transform: translate(3.5%, 0%) rotate(+360deg); }
            25% { transform: translate(3.5%, 0%) rotate(0deg); }
        }

        @keyframes right {
            0%, 30% { transform: translate(0%, 0%); }
            5% { transform: translate(-3.5%, 0%); }
            15% { transform: translate(-3.5%, 0%) rotate(+360deg); }
            25% { transform: translate(-3.5%, 0%) rotate(0deg); }
        }

        #left {
            animation: left 20s infinite forwards;
            transform-origin: 47% 65.2%;
        }

        #right {
            animation: right 20s infinite forwards;
            transform-origin: 53% 65.2%;
        }

    </style>

    <g id="Frame 1">
        <g id="toolbox">
            <path id="ear"
                d="M566 146H153C133.118 146 117 162.118 117 182V399C117 416.299 129.202 430.748 145.468 434.211C145.162 432.856 145 431.447 145 430V192C145 181.507 153.507 173 164 173H555C565.493 173 574 181.507 574 192V430C574 431.447 573.838 432.856 573.532 434.211C589.798 430.748 602 416.299 602 399V182C602 162.118 585.882 146 566 146Z"
                fill="#D9D9D9" />
            <g id="wrench" filter="url(#filter0_d_23_14895)">
                <path
                    d="M386.699 470.439C398.771 486.195 421.329 489.181 437.085 477.11C452.84 465.038 455.827 442.48 443.755 426.724L303.692 243.917C312.836 222.298 310.421 196.513 295.124 176.548C272.478 146.991 230.17 141.375 200.598 163.989L200.548 164.028L258.995 188.154L264.081 227.002L232.98 250.83L174.729 226.725C176.256 237.959 180.639 248.96 188.028 258.604C201.958 276.786 223.33 285.908 244.599 284.973L386.699 470.439Z"
                    fill="#F8F8FF" />
            </g>
            <g id="screw" filter="url(#filter1_d_23_14895)">
                <path
                    d="M395.487 446.504C382.864 464.615 357.939 469.056 339.815 456.424C321.692 443.792 317.233 418.87 329.856 400.759L373.871 337.61C386.551 339.084 399.608 333.719 407.414 322.52C415.22 311.321 415.734 297.214 409.964 285.828L420.329 270.957C425.414 263.662 435.453 261.873 442.753 266.961L454.603 275.221L594.017 75.2012L599.344 60.7586L618.995 43.981L629.705 51.4463L620.765 75.6893L609.058 85.6845L469.643 285.704L481.949 294.281C489.248 299.369 491.044 309.407 485.96 316.702L475.42 331.823C462.94 330.597 450.185 335.967 442.508 346.981C434.831 357.995 434.207 371.821 439.677 383.105L395.487 446.504Z"
                    fill="#F8F8FF" />
            </g>
            <g id="box" filter="url(#filter2_d_23_14895)">
                <path
                    d="M87 329C87 317.954 95.9543 309 107 309H612C623.046 309 632 317.954 632 329V570C632 597.614 609.614 620 582 620H137C109.386 620 87 597.614 87 570V329Z"
                    fill="#F8F8FF" />
            </g>
            <g id="logo">
                <path id="left" fill-rule="evenodd" clip-rule="evenodd"
                    d="M244.942 545.931L245.001 545.869C246.231 544.558 247.791 543.126 249.632 541.583L337.666 463.004L254.514 387.917L254.473 387.878C252.796 386.287 251.405 384.949 250.306 383.868L250.241 383.803L250.177 383.736C248.832 382.302 247.714 380.737 246.888 379.03L246.784 378.813L246.702 378.587C246.119 376.975 245.693 375.286 245.413 373.528L245.41 373.508L245.407 373.489C245.122 371.6 244.998 369.375 244.998 366.873V363.053C244.998 359.142 246.495 355.677 249.625 353.223L249.678 353.181L249.732 353.141C252.718 350.938 256.301 350 260.15 350H403.135C404.718 350 406.386 350.305 407.921 351.161C409.454 351.877 410.702 352.987 411.604 354.401C412.634 355.837 413.237 357.476 413.56 359.144C413.872 360.753 414.002 362.558 414.002 364.502C414.002 366.445 413.872 368.251 413.56 369.859C413.23 371.565 412.606 373.241 411.533 374.7C410.594 376.05 409.361 377.077 407.965 377.812L407.908 377.842L407.85 377.871C406.322 378.623 404.679 378.872 403.135 378.872H293.143L376.239 453.137L376.256 453.152C378.736 455.413 380.744 458.354 380.798 461.954C380.982 465.705 378.947 468.762 376.434 471.052L376.413 471.072L286.769 550.733H407.954C409.489 550.733 410.995 551.019 412.425 551.623L412.609 551.7L412.784 551.793C414.25 552.565 415.48 553.638 416.463 554.945L416.533 555.037L416.597 555.132C417.635 556.664 418.246 558.406 418.569 560.197C418.869 561.855 419 563.678 419 565.63C419 567.573 418.87 569.379 418.559 570.988C418.221 572.729 417.578 574.439 416.463 575.92C415.425 577.299 414.079 578.413 412.425 579.11C410.995 579.714 409.489 580 407.954 580H255.151C251.303 580 247.72 579.062 244.734 576.859C241.276 574.307 240 570.383 240 566.289V561.547C240 559.447 240.061 557.596 240.195 556.019C240.361 554.062 240.869 552.186 241.773 550.452C242.575 548.915 243.636 547.431 244.886 545.996L244.942 545.931Z"
                    fill="url(#paint0_linear_23_14895)" />
                <path id="right" fill-rule="evenodd" clip-rule="evenodd"
                    d="M475.058 545.931L474.999 545.869C473.769 544.558 472.209 543.126 470.368 541.583L382.334 463.004L465.486 387.917L465.527 387.878C467.204 386.287 468.595 384.949 469.694 383.868L469.759 383.803L469.823 383.736C471.168 382.302 472.286 380.737 473.112 379.03L473.216 378.813L473.298 378.587C473.881 376.975 474.307 375.286 474.587 373.528L474.59 373.508L474.593 373.489C474.878 371.6 475.002 369.375 475.002 366.873V363.053C475.002 359.142 473.505 355.677 470.375 353.223L470.322 353.181L470.268 353.141C467.282 350.938 463.699 350 459.85 350H316.865C315.282 350 313.614 350.305 312.079 351.161C310.546 351.877 309.298 352.987 308.396 354.401C307.366 355.837 306.763 357.476 306.44 359.144C306.128 360.753 305.998 362.558 305.998 364.502C305.998 366.445 306.128 368.251 306.44 369.859C306.77 371.565 307.394 373.241 308.467 374.7C309.406 376.05 310.639 377.077 312.035 377.812L312.092 377.842L312.15 377.871C313.678 378.623 315.321 378.872 316.865 378.872H426.857L343.761 453.137L343.744 453.152C341.264 455.413 339.256 458.354 339.202 461.954C339.018 465.705 341.053 468.762 343.566 471.052L343.587 471.072L433.231 550.733H312.046C310.511 550.733 309.005 551.019 307.575 551.623L307.391 551.7L307.216 551.793C305.75 552.565 304.52 553.638 303.537 554.945L303.467 555.037L303.403 555.132C302.365 556.664 301.754 558.406 301.431 560.197C301.131 561.855 301 563.678 301 565.63C301 567.573 301.13 569.379 301.441 570.988C301.779 572.729 302.422 574.439 303.537 575.92C304.575 577.299 305.921 578.413 307.575 579.11C309.005 579.714 310.511 580 312.046 580H464.849C468.697 580 472.28 579.062 475.266 576.859C478.724 574.307 480 570.383 480 566.289V561.547C480 559.447 479.939 557.596 479.805 556.019C479.639 554.062 479.131 552.186 478.227 550.452C477.425 548.915 476.364 547.431 475.114 545.996L475.058 545.931Z"
                    fill="url(#paint1_linear_23_14895)" />
            </g>
        </g>
    </g>
    <defs>
        <filter id="filter0_d_23_14895" x="164.729" y="140.114" width="296.439" height="354.409"
            filterUnits="userSpaceOnUse" color-interpolation-filters="sRGB">
            <feFlood flood-opacity="0" result="BackgroundImageFix" />
            <feColorMatrix in="SourceAlpha" type="matrix" values="0 0 0 0 0 0 0 0 0 0 0 0 0 0 0 0 0 0 127 0"
                result="hardAlpha" />
            <feOffset />
            <feGaussianBlur stdDeviation="5" />
            <feComposite in2="hardAlpha" operator="out" />
            <feColorMatrix type="matrix" values="0 0 0 0 0 0 0 0 0 0 0 0 0 0 0 0 0 0 0.25 0" />
            <feBlend mode="normal" in2="BackgroundImageFix" result="effect1_dropShadow_23_14895" />
            <feBlend mode="normal" in="SourceGraphic" in2="effect1_dropShadow_23_14895" result="shape" />
        </filter>
        <filter id="filter1_d_23_14895" x="312.677" y="33.981" width="327.028" height="439.635"
            filterUnits="userSpaceOnUse" color-interpolation-filters="sRGB">
            <feFlood flood-opacity="0" result="BackgroundImageFix" />
            <feColorMatrix in="SourceAlpha" type="matrix" values="0 0 0 0 0 0 0 0 0 0 0 0 0 0 0 0 0 0 127 0"
                result="hardAlpha" />
            <feOffset />
            <feGaussianBlur stdDeviation="5" />
            <feComposite in2="hardAlpha" operator="out" />
            <feColorMatrix type="matrix" values="0 0 0 0 0 0 0 0 0 0 0 0 0 0 0 0 0 0 0.25 0" />
            <feBlend mode="normal" in2="BackgroundImageFix" result="effect1_dropShadow_23_14895" />
            <feBlend mode="normal" in="SourceGraphic" in2="effect1_dropShadow_23_14895" result="shape" />
        </filter>
        <filter id="filter2_d_23_14895" x="40" y="262" width="639" height="405" filterUnits="userSpaceOnUse"
            color-interpolation-filters="sRGB">
            <feFlood flood-opacity="0" result="BackgroundImageFix" />
            <feColorMatrix in="SourceAlpha" type="matrix" values="0 0 0 0 0 0 0 0 0 0 0 0 0 0 0 0 0 0 127 0"
                result="hardAlpha" />
            <feOffset />
            <feGaussianBlur stdDeviation="23.5" />
            <feComposite in2="hardAlpha" operator="out" />
            <feColorMatrix type="matrix" values="0 0 0 0 0 0 0 0 0 0 0 0 0 0 0 0 0 0 0.25 0" />
            <feBlend mode="normal" in2="BackgroundImageFix" result="effect1_dropShadow_23_14895" />
            <feBlend mode="normal" in="SourceGraphic" in2="effect1_dropShadow_23_14895" result="shape" />
        </filter>
        <linearGradient id="paint0_linear_23_14895" x1="329.5" y1="350" x2="329.5" y2="580"
            gradientUnits="userSpaceOnUse">
            <stop stop-color="#962DC3" />
            <stop offset="1" stop-color="#C24BF4" />
        </linearGradient>
        <linearGradient id="paint1_linear_23_14895" x1="390.5" y1="350" x2="390.5" y2="580"
            gradientUnits="userSpaceOnUse">
            <stop stop-color="#1E1E1E" />
            <stop offset="1" stop-color="#353535" />
        </linearGradient>
    </defs>
</svg>