<svg width="512" height="480" viewBox="0 0 512 448" fill="none" xmlns="http://www.w3.org/2000/svg">
    <rect width="512" height="448"/>

    <style>

        @keyframes blink {
            0%, 4% { opacity: 0%; }
            2%, 6%, 100% { opacity: 100%; }
        }

        @keyframes float-reverse {
            0%, 100% { transform: translateY(-1%); }
            50% { transform: translateY(1%); }
        }

        @keyframes float {
            0%, 100% { transform: translateY(1%); }
            50% { transform: translateY(-1%); }
        }

        @keyframes spin {
            0% { transform: rotate(0deg); }
            100% { transform: rotate(360deg); }
        }

        #blink {
            animation: blink 3s infinite;
        }

        #mink {
            animation: float 3s infinite;
        }

        #circle1 {
            animation: float-reverse 2.5s infinite;
        }

        #circle2 {
            animation: float 3.5s infinite;
        }

    </style>

    <g id="right" opacity="0.88">
        <g id="Group 3">
            <circle id="circle1" cx="450.5" cy="160.5" r="61.5" fill="url(#paint0_linear_0_1)" />
            <circle id="circle2" cx="388.5" cy="98.5" r="98.5" fill="url(#paint1_linear_0_1)" />
        </g>
        <rect id="Rectangle 1" x="52.9054" y="219" width="395" height="150" rx="40"
            transform="rotate(11.8901 52.9054 219)" fill="url(#paint2_linear_0_1)" />
        <rect id="Rectangle 2" x="30.9054" y="186.003" width="395" height="150" rx="40"
            transform="rotate(11.8901 30.9054 186.003)" fill="url(#paint3_linear_0_1)" />
        <g id="mink" filter="url(#filter0_d_0_1)">
            <path id="Vector 20"
                d="M380.799 131.085L379.07 128.846L377.646 128.159L375.599 128.4L375.216 131.375L375.521 132.927L380.799 131.085Z"
                fill="#CBCBCB" />
            <path id="Vector 19"
                d="M65.5677 234.216C63.0516 233.441 61.5191 233.174 58.6887 232.827C55.9505 235.304 54.3805 236.376 52.4396 246.139C51.3313 250.444 51.16 250.467 50.9869 253.514C49.5572 256.993 49.0511 258.893 48.3512 262.249C46.7193 265.89 46.5935 266.39 46.1475 271.543C45.5921 275.726 44.8839 279.189 46.4234 281.157C47.9752 285.276 51.1564 286.359 58.7432 287.279C67.4046 288.412 72.695 289.36 78.2752 288.278C79.7466 287.597 81.824 286.538 82.5614 286.309C83.2989 286.08 87.0583 286.005 89.0721 286.642L99.4591 260.756C98.3632 260.244 96.7587 258.602 95.8107 257.766C95.3849 257.649 95.1775 257.505 94.8826 257.143C94.1229 254.733 94.2735 254.04 90.5613 251.546C86.8491 249.052 76.2265 242.195 76.2084 241.634C76.1332 239.296 74.6214 237.369 72.1916 237.588C68.6661 236.066 66.6205 235.198 65.5677 234.216Z"
                fill="#303030" />
            <path id="Vector 17"
                d="M130.156 261.175L116.575 260.941L110.907 285.418L131.431 286.545C134.263 284.436 134.409 282.109 134.562 277.874C133.676 268.394 132.368 265.953 130.156 261.175Z"
                fill="#F5DBD5" />
            <path id="Vector 18"
                d="M99.778 258.276C98.4276 257.753 97.5875 257.595 95.8107 257.766C96.2429 258.88 96.4775 259.603 96.8519 261.429C96.9404 264.818 96.5973 265.638 96.0866 267.38C94.144 270.609 93.1457 272.27 91.5947 274.868C88.6154 279.98 87.0772 283.002 82.5614 286.309C84.3848 286.182 84.9692 286.385 85.9875 286.74L86.0328 286.756C89.4939 288.031 90.0371 288.134 91.9838 287.521C94.677 286.751 95.679 286.276 102.781 285.885C103.835 285.112 110.818 287.316 112.331 286.105C113.843 284.894 120.739 271.599 116.575 260.941C115.016 260.364 113.359 260.651 109.073 260.48C106.786 260.294 105.413 260.155 102.13 259.587C101.558 259.333 101.108 259.095 99.778 258.276Z"
                fill="#4A4A4A" />
            <path id="Vector 13"
                d="M191.694 221.703C200.55 231.243 218.446 250.45 219.188 250.949L240.13 256.667L293.795 250.966L274.271 230.307C264.182 221.918 259.329 218.049 254.542 215.166C242.799 205.24 239.422 202.249 235.499 198.602C227.138 189.64 222.565 184.584 206.425 177.722C195.742 178.39 191.626 180.887 186.914 188.32C181.86 200.381 183.711 205.052 189.371 212.33C189.842 216.224 190.253 218.328 191.694 221.703Z"
                fill="#484848" />
            <g id="phone">
                <path id="Vector 8"
                    d="M216.198 97.8162L226.654 122.35L231.329 133.034L232.434 136.201L219.285 136.526C217.253 136.246 216.314 135.909 215.509 134.528L200.442 98.8145C199.956 96.7653 200.596 96.1207 202.872 95.5982L212.486 95.3223C214.865 95.3978 215.425 96.1887 216.198 97.8162Z"
                    fill="#404040" />
                <path id="screen"
                    d="M212.656 96.4348C214.789 96.5019 215.291 97.2128 215.983 98.6757L229.664 130.299C230.174 132.04 229.712 132.602 228.29 133.147L219.019 133.467C217.198 133.216 216.356 132.914 215.635 131.672L202.139 99.5701C201.704 97.728 202.278 97.1482 204.318 96.6778L212.656 96.4348Z"
                    fill="#5C5C5C" />
            </g>
            <path id="Vector 10" fill-rule="evenodd" clip-rule="evenodd"
                d="M210.629 127.571C210.629 127.571 211.059 127.52 211.811 128.003C212.563 128.487 211.262 126.441 212.038 126.24C211.484 125.555 211.227 124.128 210.933 123.073C210.357 121.635 210.096 120.664 209.911 119.974C209.667 119.066 209.555 118.645 209.027 118.291C208.099 117.668 207.044 118.036 207.044 118.036C206.7 118.302 206.671 118.477 206.533 119.334C206.446 119.872 206.845 119.579 207.185 120.855C207.525 122.131 209.482 124.59 210.324 126.02C210.588 126.717 212.782 127.764 210.629 127.571Z"
                fill="#EFCCC4" />
            <path id="Vector 11"
                d="M210.536 130.08C212.894 135.569 215.566 134.892 215.941 135.088C216.317 135.284 214.874 133.572 213.943 131.022C213.898 129.704 214.199 129.039 213.83 127.983C213.462 126.927 212.038 126.24 212.038 126.24C211.262 126.441 210.892 126.719 210.359 127.536C210.534 128.582 210.589 129.147 210.536 130.08Z"
                fill="#F5DBD5" />
            <path id="Vector 7"
                d="M290.773 176.472L247.156 138.551C246.455 134.185 241.414 122.159 238.442 120.842C235.471 119.525 233.987 116.367 233.47 115.618C232.456 114.151 228.73 114.047 227.306 113.36C225.882 112.673 224.762 113.537 225.067 115.089C225.371 116.64 227.432 118.598 230.571 119.325C232.236 121.211 232.28 121.722 233.1 123.18C233.921 124.637 233.236 124.688 232.413 124.604C230.171 123.994 228.909 123.44 226.654 122.35L230.528 131.419C231.196 134.502 230.752 134.267 229.855 135.052L222.785 135.151C222.531 134.165 221.155 133.742 220.164 133.615C219.172 133.487 218.98 134.975 218.98 134.975C218.945 137.777 221.222 141.157 221.559 142.364C221.947 143.756 226.999 145.201 231.555 146.955C234.222 147.86 235.684 148.55 238.151 150.547C241.349 153.117 248.537 163.54 254.699 170.824C260.099 178.214 274.341 193.023 288.002 205.858L290.773 176.472Z"
                fill="#F5DBD5" />
            <g id="Group 4">
                <path id="Vector 15"
                    d="M192.526 222.314C192.422 216.587 192.626 214.462 192.779 213.272C191.494 212.759 190.489 211.865 190.554 210.969C190.619 210.074 190.614 210.041 190.809 208.986C191.042 208.148 191.66 207.961 192.984 207.753L193.431 204.282C195.189 198.678 197.865 199.076 202.195 198.855C205.023 197.765 205.763 198.424 207.154 199.493C212.87 199.759 213.659 200.255 215.52 201.073C220.39 203.688 221.858 204.978 223.313 207.117C224.797 213.724 224.702 216.867 224.375 222.377L213.422 233.067L202.769 236.738L192.402 231.876L192.526 222.314Z"
                    fill="#CFCAEA" />
                <path id="Vector 22"
                    d="M198.368 228.61C198.24 229.602 197.185 229.97 196.129 230.339C195.073 230.707 194.091 230.668 193.649 230.02C193.208 229.372 192.629 223.839 192.672 218.804C192.715 213.768 193.249 205.944 193.629 204.307C194.009 202.671 196.134 199.454 197.044 199.705C197.954 199.956 198.546 200.027 198.836 201.448C198.836 201.448 198.495 227.618 198.368 228.61Z"
                    fill="#DED8FB" />
                <ellipse id="Ellipse 3" cx="205.958" cy="201.534" rx="1.5" ry="2.13027"
                    transform="rotate(-10.2737 205.958 201.534)" fill="#525252" />
                <ellipse id="Ellipse 4" cx="208.028" cy="213.503" rx="0.473186" ry="0.672009"
                    transform="rotate(-10.2737 208.028 213.503)" fill="#525252" />
                <path id="Line 1" d="M205.163 207.815C211.524 208.633 215.224 210.195 221.641 212.959" stroke="#6B6B6B"
                    stroke-width="0.25" stroke-linecap="round" />
                <line id="Line 2" x1="196.572" y1="209.447" x2="196.144" y2="228.047" stroke="#3F3F3F"
                    stroke-width="0.5" stroke-linecap="round" />
            </g>
            <path id="Vector 14"
                d="M200.493 223.842C201.67 225.603 206.088 226.975 208.796 225.919C210.42 225.546 211.275 225.756 212.764 226.429C214.224 228.782 213.206 229.865 212.062 231.884C210.22 233.068 209.169 233.71 206.72 234.222C202.551 234.432 200.646 233.947 197.298 233.01C194.473 231.494 193.751 230.47 193.345 228.468C192.633 225.792 192.684 224.375 192.686 221.83C191.581 223.702 191.223 225.147 190.865 228.149C190.421 230.739 190.427 231.857 191.283 232.74C192.134 234.711 192.268 235.563 192.26 236.899C191.794 239.769 192.613 240.8 194.726 241.249C197.696 243.644 199.495 244.431 202.71 245.805L305.698 252.497L313.951 251.038C314.346 247.192 314.318 245 313.739 240.928C311.608 238.039 310.947 237.03 309.914 235.395C307.244 230.934 305.304 229.303 300.697 228.664C294.34 228.805 289.095 229.192 279.358 229.953C271.064 230.03 266.677 229.898 259.266 229.385C251.081 229.487 244.117 227.619 240.918 227.025C237.718 226.431 235.399 226.819 232.119 224.885C228.839 222.951 229.462 222.023 227.542 221.272C225.622 220.521 218.616 220.124 218.616 220.124C215.056 220.084 212.806 219.69 208.697 218.848C205.274 219.296 203.401 219.631 200.38 220.803C199.266 222.073 199.368 222.734 200.493 223.842Z"
                fill="#F5DBD5" />
            <path id="Vector 6"
                d="M347.245 148.951L342.895 151.416L344.893 147.64L346.92 135.802L341.274 136.588L333.006 142.078C329.586 144.169 327.334 145.958 322.931 149.857C315.876 154.585 314.556 160.557 310.54 163.891C306.524 167.224 306.785 164.591 304.688 170.196C301.714 172.19 300.028 173.299 296.98 175.254L292.821 176.231L289.845 175.848C284.36 189.877 285.765 194.475 287.57 205.299C289.041 207.44 289.838 208.062 291.218 208.289C293.635 208.548 295.626 208.414 299.84 207.885C302.897 208.812 304.165 208.429 306.415 207.722C308.205 206.947 308.954 206.323 310.269 205.193C311.108 203.665 310.957 202.27 311.339 200.794C312.352 201.72 312.076 202.905 312.38 204.457C312.685 206.008 315.362 212.504 316.368 216.564C316.383 218.46 315.979 219.743 314.611 222.388C311.853 222.615 306.602 225.386 299.705 228.536C309.178 233.722 308.769 238.264 305.903 246.978L307.426 254.735L344.4 269.069L361.125 291.889C375.458 287.78 380.788 281.549 375.862 263.537C384.902 252.921 386.651 245.473 390.918 232.706C395.607 216.235 402.88 202.056 403.19 200.004C403.5 197.953 398.14 172.636 398.14 172.636C395.984 160.107 390.773 153.918 381.811 142.81C381.884 138.146 382.366 136.01 381.79 131.212L381.739 131.153C380.995 130.291 380.562 129.789 379.566 128.91C378.856 128.361 378.343 128.166 377.15 128.095L374.607 128.272C375.932 128.372 376.658 128.383 378.078 128.719C379.629 129.676 379.997 130.17 380.303 131.021L376.576 132.558L373.969 133.231C363.658 137.969 357.836 141.079 347.245 148.951Z"
                fill="#FCFCFC" />
            <path id="Vector 12"
                d="M362.394 266.342C356.264 257.299 340.038 247.73 339.016 248.212C337.994 248.694 336.837 248.739 335.786 249.813C334.702 251.496 333.851 253.093 332.732 253.957C331.613 254.821 331.319 255.027 326.59 254.68C325.249 254.725 324.485 254.742 323.055 254.729C320.849 255.219 320.179 255.05 319.583 254.283C318.418 254.946 317.684 255.286 316.352 255.883C314.737 256.791 313.998 256.552 312.945 254.941C312.476 254.354 312.188 253.979 311.648 253.262C306.802 252.605 304.138 251.866 299.442 250.18C289.601 246.612 284.001 244.52 273.06 239.729C266.78 234.097 263.432 234.164 257.509 235.208L257.261 235.12C252.555 233.441 249.841 232.473 242.823 231.807C235.608 231.65 231.561 232.14 224.318 238.501C205.943 244.884 193.218 249.56 181.102 253.108C175.025 252.985 165.297 254.962 149.207 258.08C145.034 257.344 142.684 257.517 138.474 259.22C133.201 259.925 131.325 259.812 127.868 259.368C121.669 268.153 121.775 274.463 124.36 286.644C125.31 290.413 127.307 295.089 131.147 296.591C134.987 298.093 138.665 298.404 138.968 294.572C141.159 293.752 142.41 293.465 144.678 293.29C149.565 294.109 153.879 293.482 160.867 292.851C199.847 286.992 203.864 287.67 208.277 284.834L208.387 284.839C214.49 285.147 216.852 285.266 226.831 281.675C227.471 281.65 227.771 281.726 228.29 281.859L228.319 281.866C232.661 283.389 233.178 283.189 236.19 283.382C258.22 289.983 272.461 290.749 289.946 304.412C307.13 311.655 317.062 314.067 335.684 313.319C338.066 313.547 340.13 312.535 341.394 312.037C345.451 311.155 349.44 309.082 350.809 304.677C351.755 302.019 353.253 300.102 354.714 298.626C359.117 297.282 360.35 295.098 360.948 289.346C363.922 282.14 366.323 278.642 362.394 266.342Z"
                fill="#3A3A3A" />
            <path id="Vector 21"
                d="M130.156 261.175L121.102 261.019L117.417 285.751L131.431 286.545C134.263 284.436 134.409 282.109 134.562 277.874C133.676 268.394 132.368 265.953 130.156 261.175Z"
                fill="#F5DBD5" />
            <path id="Vector 1"
                d="M317.471 98.2384C319.245 96.9821 320.232 96.252 321.949 94.7813C323.513 93.4895 324.142 92.6333 325.435 91.1966C326.117 90.4791 326.392 90.0688 326.682 89.3405C326.316 87.8857 326.185 87.2112 326.072 86.2375C326.151 84.5164 326.514 81.6589 326.838 80.2865C327.228 79.2362 327.532 78.7406 328.149 77.9345C328.673 76.2863 329.778 73.1029 329.778 73.1029L334.575 67.1663L343.02 64.2194L354.234 67.1741C358.4 70.0624 366.99 76.1749 368.027 77.5181C369.324 79.1972 375.487 90.0722 376.351 91.1916C377.043 92.0872 380.771 103.859 382.549 109.633L376.909 126.048C376.52 127.206 376.144 131.999 376.08 132.494C376.016 132.99 371.989 134.422 368.004 136.497C360.218 140.882 356.86 142.782 348.365 148.086C347.042 149.654 343.708 151.655 341.776 152.28C341.999 151.484 342.135 151.045 342.527 150.36C343.274 149.324 343.461 148.659 343.902 147.512L344.653 145.593C344.913 144.005 344.32 142.861 344.235 141.002C343.747 138.848 343.753 138.698 341.274 136.588C339.902 135.661 339.714 134.413 339.737 132.861C339.864 130.721 339.719 131.004 339.255 128.767C338.069 128.513 337.205 128.382 334.792 128.193C326.321 128.152 323.093 127.078 320.488 121.816C320.429 120.057 320.601 119.238 320.999 117.849C321.352 116.884 320.595 116.604 319.206 116.106C317.818 115.608 318.051 114.15 318.725 112.011C317.209 112.231 315.905 109.67 317.187 108.284C319.368 106.577 319.532 105.526 319.678 104.591L319.681 104.572C317.603 103.475 315.984 101.888 316.097 101.086C316.308 99.6946 316.635 99.0933 317.471 98.2384Z"
                fill="#F5DBD5" />
            <path id="Vector 2"
                d="M362.493 116.632C362.772 111.486 362.985 108.65 364.087 104.234L357.173 95.2786C358.948 92.6747 357.177 96.1177 353.51 96.3199C349.843 96.5222 349.274 101.824 348.586 103.248C347.899 104.672 347.01 104.183 346.603 102.993C346.773 103.117 345.451 94.9013 344.407 92.6285C343.362 90.3557 346.098 87.1451 342.084 83.2555C340.49 81.3616 340.581 79.7497 341.985 76.1852C341.584 72.7259 340.739 71.299 336.048 71.3887C330.815 72.8401 328.706 75.2824 326.519 82.7661C325.497 81.3187 324.744 76.9709 324.868 76.0003C325.315 72.5289 327.735 67.0173 332.974 63.9356C338.176 60.5249 348.379 53.3495 365.379 54.9963C370.973 55.849 376.706 54.5402 386.983 69.7618C387.393 70.3687 387.089 71.1741 387.893 72.0072C392.889 77.2105 395.466 80.4915 397.003 91.3271C397.545 95.1387 397.029 102.623 392.227 108.861C390.683 111.455 390.02 112.53 387.494 114.302C385.373 115.264 384.201 116.383 382.953 118.255C381.367 122.241 379.837 124.043 376.782 127.039C373.789 129.097 371.416 127.835 367.855 125.891C365.821 123.435 363.121 119.74 362.493 116.632Z"
                fill="#565656" />
            <path id="Vector 4"
                d="M352.547 88.1302C342.175 86.6591 336.308 85.9837 325.704 85.1819C324.699 84.9543 324.128 85.048 323.097 85.8548C322.23 91.0673 322.317 95.8369 323.181 96.9563C324.046 98.0757 324.733 96.6517 325.179 93.1803C325.626 89.7089 325.449 87.1656 325.449 87.1656L341.318 89.2066C342.418 88.7485 342.989 88.483 344.485 88.1015C347.777 88.3723 350.996 88.4347 352.916 89.1858C354.835 89.9368 356.824 91.7493 359.412 93.5501L360.468 93.1818L359.603 92.0624C356.775 90.0495 355.023 88.4812 352.547 88.1302Z"
                fill="#454545" />
            <path id="Vector 3"
                d="M353.404 108.909C352.576 108.514 352.345 107.971 352.794 105.806C353.13 103.861 353.682 102.531 356.167 99.1822C356.681 97.6971 356.982 96.7664 357.173 95.2786C357.364 93.7909 361.969 89.342 364.562 92.7002C367.155 96.0583 366.339 98.8163 364.711 103.306C362.948 106.393 361.267 107.737 358.426 109.051C356.391 109.698 355.32 109.385 353.404 108.909Z"
                fill="#F5D3CC" />
            <path id="Vector 5"
                d="M323.741 96.5242C325.099 96.2014 325.103 85.4719 324.648 85.5503C324.194 85.6287 323.972 85.7204 323.593 85.9186C323.125 86.1633 322.383 96.847 323.741 96.5242Z"
                fill="#D9D9D9" />
            <path id="Vector 16"
                d="M233.143 303.155C233.143 303.155 230.521 305.288 227.114 306.917C223.756 308.522 222.611 310.644 220.067 315.359L219.951 315.574C219.282 318.896 218.295 322.014 220.227 325.188C221.891 327.922 221.724 326.976 223.988 331.217C226.154 334.562 227.415 336.42 232.086 338.812C237.158 339.922 239.029 339.552 242.627 339.159C245.909 337.981 254.032 332.503 255.309 330.708C256.8 328.613 262.823 326.125 267.544 325.728C272.731 323.054 275.121 321.289 278.178 317.517C280.573 313.829 281.781 311.71 284.909 308.301C288.234 305.72 289.164 304.653 289.018 303.788C289.056 299.31 289.019 296.936 287.496 296.03C284.876 295.574 283.272 295.143 280.184 294.082C273.195 289.146 270.596 286.828 256.36 279.423C253.624 279.092 252.194 278.857 247.802 279.331C244.409 280.223 242.504 280.729 238.173 283.638L236.863 285.99C234.307 288.023 233.018 289.248 232.498 292.486C231.943 296.141 231.902 298.362 233.143 303.155Z"
                fill="#303030" />
            <g id="blink" filter="url(#filter1_d_0_1)">
                <path
                    d="M212.656 96.4348C214.789 96.5019 215.291 97.2128 215.983 98.6757L229.664 130.299C230.174 132.04 229.712 132.602 228.29 133.147L219.019 133.467C217.198 133.216 216.356 132.914 215.635 131.672L202.139 99.5701C201.704 97.728 202.278 97.1482 204.318 96.6778L212.656 96.4348Z"
                    fill="#79F7FF" />
            </g>
        </g>
    </g>
    <defs>
        <filter id="filter0_d_0_1" x="41.4918" y="54.7543" width="365.711" height="293.795" filterUnits="userSpaceOnUse"
            color-interpolation-filters="sRGB">
            <feFlood flood-opacity="0" result="BackgroundImageFix" />
            <feColorMatrix in="SourceAlpha" type="matrix" values="0 0 0 0 0 0 0 0 0 0 0 0 0 0 0 0 0 0 127 0"
                result="hardAlpha" />
            <feOffset dy="5" />
            <feGaussianBlur stdDeviation="2" />
            <feComposite in2="hardAlpha" operator="out" />
            <feColorMatrix type="matrix" values="0 0 0 0 0 0 0 0 0 0 0 0 0 0 0 0 0 0 0.25 0" />
            <feBlend mode="normal" in2="BackgroundImageFix" result="effect1_dropShadow_0_1" />
            <feBlend mode="normal" in="SourceGraphic" in2="effect1_dropShadow_0_1" result="shape" />
        </filter>
        <filter id="filter1_d_0_1" x="173.003" y="67.4348" width="85.8625" height="95.0326" filterUnits="userSpaceOnUse"
            color-interpolation-filters="sRGB">
            <feFlood flood-opacity="0" result="BackgroundImageFix" />
            <feColorMatrix in="SourceAlpha" type="matrix" values="0 0 0 0 0 0 0 0 0 0 0 0 0 0 0 0 0 0 127 0"
                result="hardAlpha" />
            <feOffset />
            <feGaussianBlur stdDeviation="14.5" />
            <feComposite in2="hardAlpha" operator="out" />
            <feColorMatrix type="matrix" values="0 0 0 0 0 0 0 0 0 1 0 0 0 0 1 0 0 0 0.5 0" />
            <feBlend mode="normal" in2="BackgroundImageFix" result="effect1_dropShadow_0_1" />
            <feBlend mode="normal" in="SourceGraphic" in2="effect1_dropShadow_0_1" result="shape" />
        </filter>
        <linearGradient id="paint0_linear_0_1" x1="494.83" y1="99" x2="418.345" y2="222" gradientUnits="userSpaceOnUse">
            <stop stop-color="#EDD3F7" />
            <stop offset="1" stop-color="#BD94CC" />
        </linearGradient>
        <linearGradient id="paint1_linear_0_1" x1="459.5" y1="-3.06102e-06" x2="337" y2="197"
            gradientUnits="userSpaceOnUse">
            <stop stop-color="#FDF7FF" />
            <stop offset="1" stop-color="#C3B2C9" />
        </linearGradient>
        <linearGradient id="paint2_linear_0_1" x1="250.405" y1="219" x2="250.405" y2="369"
            gradientUnits="userSpaceOnUse">
            <stop stop-color="#B4B3F2" />
            <stop offset="1" stop-color="#6E6CA8" />
        </linearGradient>
        <linearGradient id="paint3_linear_0_1" x1="228.405" y1="186.003" x2="228.405" y2="336.003"
            gradientUnits="userSpaceOnUse">
            <stop stop-color="#B4B3F2" />
            <stop offset="1" stop-color="#6E6CA8" />
        </linearGradient>
    </defs>
</svg>